<svg xmlns="http://www.w3.org/2000/svg" xmlns:xlink="http://www.w3.org/1999/xlink" viewBox="0,0,256,256" width="48px" height="48px" fill-rule="nonzero"><defs><linearGradient x1="34.756" y1="36.975" x2="23.011" y2="24.21" gradientUnits="userSpaceOnUse" id="color-1"><stop offset="0" stop-color="#54f6fc"></stop><stop offset="1" stop-color="#038387"></stop></linearGradient><linearGradient x1="12.572" y1="10.805" x2="42.636" y2="41.826" gradientUnits="userSpaceOnUse" id="color-2"><stop offset="0" stop-color="#26c6da"></stop><stop offset="1" stop-color="#05a8af"></stop></linearGradient></defs><g fill="none" fill-rule="nonzero" stroke="none" stroke-width="1" stroke-linecap="butt" stroke-linejoin="miter" stroke-miterlimit="10" stroke-dasharray="" stroke-dashoffset="0" font-family="none" font-weight="none" font-size="none" text-anchor="none" style="mix-blend-mode: normal"><g transform="scale(5.33333,5.33333)"><path d="M44.588,41.324l-16.852,-18.091c-2.851,3.007 -3.161,6.526 -1.928,10.356l7.338,7.877c0.246,0.264 0.59,0.414 0.951,0.414h10.25c0.289,0 0.438,-0.344 0.241,-0.556z" fill="url(#color-1)"></path><path d="M15.016,22.004l-11.009,-11.817c-0.489,-0.525 -0.46,-1.348 0.066,-1.837l4.296,-4.002c0.525,-0.489 1.347,-0.46 1.836,0.065l10.633,11.414l-3.335,-0.918l1.021,3.964l-3.304,0.12zM19.905,31.128l-4.265,1.141l-0.12,-3.724l-2.62,-0.279l-8.893,9.547c-0.489,0.525 -0.46,1.347 0.065,1.836l4.296,4.002c0.525,0.489 1.347,0.46 1.836,-0.065l9.351,-10.038zM44.347,6.12h-10.25c-0.361,0 -0.705,0.15 -0.951,0.414l-9.773,10.491l0.001,0.003l-5.841,6.3c-0.364,0.393 -0.363,1.001 0.002,1.393l9.097,9.749c-1.126,-4.46 -0.541,-7.974 1.617,-10.255l16.339,-17.539c0.197,-0.212 0.048,-0.556 -0.241,-0.556z" fill="url(#color-2)"></path></g></g></svg>